<svg width="42" height="42" viewBox="0 0 42 42" fill="none" xmlns="http://www.w3.org/2000/svg">
<path d="M41.987 23.5108C41.9909 22.6472 41.855 19.3889 41.7513 18.457C40.5569 7.76212 31.8767 0 21.1129 0C9.90154 0 0.81777 8.63888 0.20151 20.0937C0.188385 20.3438 0.0965098 22.1176 0.0899473 23.1735L0.086666 23.7608C0.0328125 24.0037 0 24.2543 0 24.5129V33.3172C0 35.24 1.56384 36.8038 3.48666 36.8038H7.02581C8.94863 36.8038 10.5131 35.24 10.5131 33.3172V24.5136C10.5131 22.5907 8.94793 21.0269 7.02577 21.0269H3.486C3.24925 21.0269 3.01311 21.0509 2.78119 21.0984C2.80088 20.6726 2.81859 20.3365 2.82323 20.2348C3.36332 10.1948 11.319 2.625 21.1129 2.625C30.5169 2.625 38.0986 9.40669 39.142 18.7491C39.186 19.1389 39.2424 20.1298 39.2877 21.1247C39.0337 21.0656 38.7719 21.0269 38.5002 21.0269H35.0024C33.0796 21.0269 31.5158 22.5907 31.5158 24.5135V33.2771C31.5158 34.6047 32.2704 35.7485 33.3651 36.3365L24.9389 39.6447V39.4307C24.9389 38.7062 24.3509 38.1182 23.6264 38.1182H19.6889C18.9644 38.1182 18.3764 38.7062 18.3764 39.4307V40.7432C18.3764 41.4677 18.9644 42.0557 19.6889 42.0557H23.6264C23.6376 42.0557 23.6474 42.0525 23.6586 42.0525L26.0112 42.0433L39.5281 36.7368C39.7053 36.6633 39.8555 36.5537 39.9789 36.4225C41.1621 35.864 41.9883 34.6696 41.9883 33.2771V24.5135C41.9883 24.2995 41.9621 24.0915 41.9247 23.8887C41.9608 23.7679 41.9863 23.6426 41.987 23.5107L41.987 23.5108ZM3.48604 23.6519H7.02528C7.50106 23.6519 7.88755 24.0378 7.88755 24.5136V33.3178C7.88755 33.7936 7.50036 34.1795 7.0252 34.1795H3.48608C3.0103 34.1795 2.62447 33.7936 2.62447 33.3178V24.5136C2.62508 24.0378 3.01096 23.6519 3.48608 23.6519H3.48604ZM34.1402 24.5136C34.1402 24.0378 34.5261 23.6519 35.0019 23.6519H38.4997C38.9755 23.6519 39.362 24.0378 39.362 24.5136V33.2771C39.362 33.7529 38.9748 34.1388 38.4996 34.1388H35.0018C34.5261 34.1388 34.1402 33.7529 34.1402 33.2771V24.5136Z" fill="black"/>
</svg>
