<svg width="160" height="160" viewBox="0 0 160 160" fill="none" xmlns="http://www.w3.org/2000/svg">
<circle cx="80" cy="80" r="80" fill="white"/>
<path d="M115 79.0928C115 74.4553 109.193 70.0598 100.288 67.3357C102.345 58.2619 101.432 51.0403 97.4067 48.7273C96.4314 48.1811 95.3276 47.9062 94.21 47.9311V51.1103C94.8662 51.1103 95.3942 51.2415 95.8375 51.4836C97.7771 52.5978 98.62 56.8328 97.9638 62.284C97.8063 63.6257 97.5496 65.0373 97.2346 66.4782C94.2527 65.7596 91.2263 65.2403 88.1754 64.9236C86.3579 62.4161 84.375 60.0327 82.24 57.7894C86.8921 53.4669 91.2583 51.0986 94.2275 51.0986V47.9165C90.3017 47.9165 85.1654 50.7136 79.9708 55.564C74.7792 50.7457 69.64 47.9748 65.7171 47.9748V51.154C68.6717 51.154 73.0525 53.5107 77.7046 57.804C75.7067 59.904 73.7088 62.284 71.81 64.9236C68.7528 65.2368 65.721 65.7611 62.7362 66.4928C62.4208 65.1271 62.1726 63.7469 61.9925 62.3569C61.3217 56.9028 62.15 52.6678 64.0779 51.5419C64.5037 51.2853 65.0608 51.1686 65.7171 51.1686V47.9894C64.5213 47.9894 63.4333 48.2461 62.4942 48.7857C58.4838 51.0986 57.5854 58.3028 59.6533 67.3503C50.7779 70.0919 45 74.4698 45 79.0928C45 83.7303 50.8071 88.1257 59.7117 90.8469C57.6554 99.9236 58.5683 107.145 62.5933 109.455C63.5208 109.998 64.6058 110.254 65.8017 110.254C69.7275 110.254 74.8638 107.457 80.0583 102.607C85.25 107.428 90.3862 110.196 94.3121 110.196C95.4382 110.22 96.5504 109.944 97.535 109.397C101.545 107.087 102.444 99.8828 100.376 90.8353C109.222 88.1111 115 83.7157 115 79.0928ZM96.4208 69.5757C95.8666 71.4827 95.2243 73.3631 94.4958 75.2107C93.3034 72.8912 91.9941 70.6337 90.5729 68.4469C92.6 68.7473 94.5542 69.1178 96.4238 69.5757H96.4208ZM89.8875 84.7715C88.8192 86.6366 87.6719 88.4553 86.4488 90.2228C82.1678 90.6001 77.8622 90.6049 73.5804 90.2373C71.1244 86.7291 68.9766 83.015 67.1608 79.1365C68.9738 75.2489 71.1125 71.5217 73.5542 67.9948C77.8341 67.6167 82.1387 67.6109 86.4196 67.9773C87.6038 69.6748 88.7617 71.489 89.8729 73.4023C90.9579 75.269 91.9438 77.1648 92.8421 79.0782C91.9338 81.0147 90.9481 82.914 89.8875 84.7715ZM94.4958 82.9165C95.2658 84.8269 95.925 86.7402 96.4646 88.5952C94.5979 89.0532 92.6263 89.4382 90.5875 89.7357C92.0028 87.529 93.3072 85.2531 94.4958 82.9165ZM80.0292 98.1415C78.7021 96.7707 77.375 95.2453 76.0625 93.574C77.3458 93.6323 78.6583 93.6761 79.9854 93.6761C81.3271 93.6761 82.6542 93.6469 83.9521 93.574C82.6688 95.2453 81.3417 96.7707 80.0292 98.1415ZM69.4125 89.7357C67.4459 89.4507 65.4936 89.075 63.5617 88.6098C64.0896 86.7694 64.7458 84.8707 65.4867 82.9748C66.0729 84.1123 66.6883 85.2557 67.3592 86.399C68.03 87.5394 68.7125 88.6536 69.4125 89.7357ZM79.9562 60.044C81.2833 61.4148 82.6104 62.9403 83.9229 64.6115C82.6396 64.5532 81.3271 64.5094 80 64.5094C78.6583 64.5094 77.3313 64.5386 76.0333 64.6115C77.3167 62.9403 78.6437 61.4148 79.9562 60.044ZM69.3979 68.4498C67.983 70.6517 66.6786 72.9227 65.4896 75.2544C64.7406 73.3949 64.0836 71.4997 63.5208 69.5757C65.3875 69.1323 67.3592 68.7473 69.3979 68.4498ZM56.4858 86.3115C51.4342 84.159 48.1675 81.3328 48.1675 79.0928C48.1675 76.8528 51.4342 74.0119 56.4858 71.874C57.7108 71.3461 59.0525 70.8736 60.4379 70.4332C61.2517 73.2273 62.3221 76.1382 63.6463 79.1219C62.3961 81.9283 61.3388 84.8167 60.4817 87.7669C59.1267 87.3474 57.7932 86.8617 56.4858 86.3115ZM64.1625 106.699C62.2229 105.591 61.38 101.35 62.0363 95.9015C62.1938 94.5598 62.4504 93.1453 62.7654 91.7044C65.5596 92.3898 68.6133 92.9178 71.8246 93.2619C73.6422 95.7693 75.6251 98.1527 77.76 100.396C73.1079 104.719 68.7417 107.087 65.7725 107.087C65.2123 107.093 64.6593 106.961 64.1625 106.702V106.699ZM98.0075 95.8286C98.6783 101.28 97.85 105.518 95.9221 106.644C95.4963 106.9 94.9392 107.014 94.2829 107.014C91.3283 107.014 86.9475 104.66 82.2954 100.364C84.4215 98.13 86.391 95.7522 88.19 93.2473C91.2472 92.9342 94.279 92.4099 97.2638 91.6782C97.5933 93.119 97.8471 94.5015 98.0075 95.8286ZM103.5 86.3115C102.275 86.8394 100.933 87.3119 99.5475 87.7523C98.6753 84.787 97.6034 81.8841 96.3392 79.0636C97.6517 76.0973 98.7046 73.2011 99.5038 70.4186C100.863 70.8395 102.201 71.3252 103.514 71.874C108.566 74.0265 111.833 76.8528 111.833 79.0928C111.818 81.3328 108.551 84.1736 103.5 86.3115Z" fill="#DD963C"/>
<path d="M79.9854 85.6146C81.7151 85.6146 83.3739 84.9275 84.5969 83.7045C85.82 82.4814 86.5071 80.8226 86.5071 79.093C86.5071 77.3633 85.82 75.7045 84.5969 74.4814C83.3739 73.2584 81.7151 72.5713 79.9854 72.5713C78.2558 72.5713 76.597 73.2584 75.3739 74.4814C74.1509 75.7045 73.4637 77.3633 73.4637 79.093C73.4637 80.8226 74.1509 82.4814 75.3739 83.7045C76.597 84.9275 78.2558 85.6146 79.9854 85.6146Z" fill="#DD963C"/>
</svg>
