<svg width="53" height="40" viewBox="0 0 53 40" fill="none" xmlns="http://www.w3.org/2000/svg">
<path d="M0 0V3.625H31.3409V30.8125H21.1865C20.4508 27.6968 17.9006 25.375 14.8457 25.375C11.7908 25.375 9.24063 27.6968 8.50494 30.8125H6.59809V21.75H3.29905V34.4375H8.50494C9.24063 37.5532 11.7908 39.875 14.8457 39.875C17.9006 39.875 20.4508 37.5532 21.1865 34.4375H34.8973C35.633 37.5532 38.1832 39.875 41.2381 39.875C44.293 39.875 46.8432 37.5532 47.5788 34.4375H52.7847V19.6547L52.6808 19.3702L49.3818 8.49519L49.0238 7.25H34.64V0H0ZM1.64952 7.25V10.875H16.4952V7.25H1.64952ZM34.64 10.875H46.6502L49.4857 20.1641V30.8125H47.5788C46.8432 27.6968 44.293 25.375 41.2381 25.375C38.1832 25.375 35.633 27.6968 34.8973 30.8125H34.64V10.875ZM3.29905 14.5V18.125H13.1962V14.5H3.29905ZM14.8457 29C16.6882 29 18.1448 30.6004 18.1448 32.625C18.1448 34.6496 16.6882 36.25 14.8457 36.25C13.0032 36.25 11.5467 34.6496 11.5467 32.625C11.5467 30.6004 13.0032 29 14.8457 29ZM41.2381 29C43.0806 29 44.5371 30.6004 44.5371 32.625C44.5371 34.6496 43.0806 36.25 41.2381 36.25C39.3956 36.25 37.939 34.6496 37.939 32.625C37.939 30.6004 39.3956 29 41.2381 29Z" fill="black"/>
</svg>
