<svg width="100" height="16" viewBox="0 0 100 16" fill="none" xmlns="http://www.w3.org/2000/svg">
<path fill-rule="evenodd" clip-rule="evenodd" d="M9.595 6.252L8 1L6.405 6.252H1L5.373 9.652L3.75 15L8 11.695L12.25 15L10.627 9.652L15 6.252H9.595Z" fill="#DD963C"/>
<path fill-rule="evenodd" clip-rule="evenodd" d="M30.595 6.252L29 1L27.405 6.252H22L26.373 9.652L24.75 15L29 11.695L33.25 15L31.627 9.652L36 6.252H30.595Z" fill="#DD963C"/>
<path fill-rule="evenodd" clip-rule="evenodd" d="M51.595 6.252L50 1L48.405 6.252H43L47.373 9.652L45.75 15L50 11.695L54.25 15L52.627 9.652L57 6.252H51.595Z" fill="#DD963C"/>
<path fill-rule="evenodd" clip-rule="evenodd" d="M72.595 6.252L71 1L69.405 6.252H64L68.373 9.652L66.75 15L71 11.695L75.25 15L73.627 9.652L78 6.252H72.595Z" fill="#DD963C"/>
<path fill-rule="evenodd" clip-rule="evenodd" d="M93.595 6.252L92 1L90.405 6.252H85L89.373 9.652L87.75 15L92 11.695L96.25 15L94.627 9.652L99 6.252H93.595Z" fill="#DD963C"/>
</svg>
