<svg width="46" height="52" viewBox="0 0 46 52" fill="none" xmlns="http://www.w3.org/2000/svg">
<path d="M19.125 0.166626L36.4578 6.05663C36.9412 6.22078 37.3637 6.54871 37.6636 6.99254C37.9636 7.43637 38.1252 7.97287 38.125 8.52371V13.0833H42.875C43.5049 13.0833 44.109 13.3555 44.5544 13.8399C44.9998 14.3244 45.25 14.9815 45.25 15.6666V36.3333C45.25 37.0184 44.9998 37.6755 44.5544 38.16C44.109 38.6445 43.5049 38.9166 42.875 38.9166L35.2275 38.9192C34.3084 40.2367 33.1921 41.3992 31.9025 42.355L19.125 51.8333L6.3475 42.3576C4.42974 40.9354 2.86041 39.0251 1.77596 36.7929C0.691505 34.5607 0.12476 32.0742 0.125 29.5495V8.52371C0.125286 7.97331 0.287181 7.43739 0.587085 6.99408C0.88699 6.55077 1.30923 6.22323 1.79225 6.05921L19.125 0.166626ZM19.125 5.57613L4.875 10.4225V29.5495C4.87466 31.131 5.20809 32.6916 5.84962 34.1109C6.49114 35.5303 7.42363 36.7705 8.57525 37.736L9.02413 38.0874L19.125 45.5816L28.1073 38.9166H16.75C16.1201 38.9166 15.516 38.6445 15.0706 38.16C14.6252 37.6755 14.375 37.0184 14.375 36.3333V15.6666C14.375 14.9815 14.6252 14.3244 15.0706 13.8399C15.516 13.3555 16.1201 13.0833 16.75 13.0833H33.375V10.4225L19.125 5.57613ZM19.125 26V33.75H40.5V26H19.125ZM19.125 20.8333H40.5V18.25H19.125V20.8333Z" fill="black"/>
</svg>
